<?xml version="1.0" standalone="no"?>
<!DOCTYPE svg PUBLIC "-//W3C//DTD SVG 20010904//EN"
 "http://www.w3.org/TR/2001/REC-SVG-20010904/DTD/svg10.dtd">
<svg version="1.0" xmlns="http://www.w3.org/2000/svg"
 width="640.000000pt" height="640.000000pt" viewBox="0 0 640.000000 640.000000"
 preserveAspectRatio="xMidYMid meet">
<metadata>
Created by potrace 1.11, written by Peter Selinger 2001-2013
</metadata>
<g transform="translate(0.000000,640.000000) scale(0.100000,-0.100000)"
fill="#000000" stroke="none">
<path d="M290 6382 c0 -9 -10 -28 -23 -42 -12 -14 -36 -43 -52 -65 -16 -22
-45 -58 -65 -81 -19 -22 -50 -59 -69 -81 -18 -23 -44 -44 -57 -47 -22 -6 -24
-11 -24 -75 0 -67 1 -69 23 -64 29 7 65 40 84 78 9 17 40 57 69 91 30 33 52
63 49 66 -3 2 9 17 25 33 17 16 30 34 30 40 0 6 12 22 26 36 29 26 54 77 54
109 0 16 -6 20 -35 20 -27 0 -35 -4 -35 -18z"/>
<path d="M2800 6049 c-91 -3 -199 -11 -240 -18 -187 -28 -412 -81 -435 -102
-5 -5 -16 -9 -25 -9 -8 0 -28 -7 -44 -15 -15 -8 -35 -15 -43 -15 -8 0 -27 -7
-41 -15 -15 -8 -67 -32 -117 -55 -49 -22 -97 -45 -105 -50 -8 -6 -38 -22 -67
-36 -29 -14 -57 -32 -64 -40 -6 -8 -18 -14 -25 -14 -8 0 -14 -4 -14 -8 0 -5
-10 -14 -22 -21 -138 -71 -434 -334 -553 -491 -27 -36 -62 -78 -77 -95 -15
-16 -28 -34 -28 -39 0 -5 -11 -24 -25 -42 -14 -18 -25 -36 -25 -40 0 -3 -15
-32 -34 -63 -55 -91 -113 -208 -136 -274 -12 -34 -25 -66 -30 -72 -4 -5 -10
-23 -13 -40 -2 -16 -14 -53 -25 -81 -10 -28 -23 -73 -27 -100 -4 -27 -11 -57
-17 -68 -9 -17 -16 -55 -38 -211 -15 -113 -19 -306 -8 -510 12 -247 57 -476
136 -690 51 -139 121 -276 210 -410 71 -107 113 -157 242 -285 85 -85 189
-182 230 -214 41 -33 80 -65 85 -70 6 -6 22 -17 37 -25 27 -14 32 -25 43 -101
5 -37 3 -50 -14 -72 -11 -14 -33 -29 -48 -33 -29 -7 -116 -57 -143 -81 -178
-162 -244 -250 -336 -444 -14 -30 -30 -68 -34 -85 -8 -29 -25 -79 -41 -120
-23 -61 -41 -117 -54 -178 -9 -37 -20 -77 -25 -90 -6 -12 -16 -65 -23 -117
-14 -105 -8 -97 -112 -140 -83 -35 -96 -43 -142 -90 -68 -69 -110 -148 -127
-242 -7 -37 -6 -38 22 -38 31 0 42 14 42 54 0 62 109 206 198 263 72 46 91 42
108 -24 27 -106 105 -193 219 -243 28 -12 63 -28 78 -36 23 -11 104 -14 407
-14 l378 0 -8 32 c-36 138 -60 310 -60 430 0 290 117 609 283 769 51 50 86 63
126 47 30 -11 201 -38 243 -38 30 0 31 2 60 90 13 39 20 46 54 56 46 13 116 1
156 -28 32 -22 48 -17 48 16 0 33 -19 45 -91 57 -34 5 -66 12 -71 15 -4 3 -42
12 -85 20 -144 29 -198 41 -258 59 -33 9 -78 21 -100 26 -56 13 -313 109 -365
136 -14 7 -28 13 -31 13 -16 0 -180 97 -231 137 -67 51 -231 212 -305 298
-172 202 -321 457 -383 660 -17 55 -36 114 -41 130 -37 105 -52 288 -44 525 6
171 25 309 59 435 9 33 21 74 25 90 20 76 140 290 210 376 25 31 60 73 76 94
50 64 115 124 211 194 116 85 116 85 204 127 41 19 83 40 92 45 46 24 229 80
268 82 14 0 32 -3 42 -7 14 -7 17 4 21 96 5 105 18 181 42 253 15 45 67 167
87 205 26 51 118 166 155 195 62 49 103 75 118 75 8 0 16 4 19 9 8 12 93 31
185 41 78 8 185 -10 256 -44 41 -20 151 -143 160 -179 4 -15 11 -30 16 -33 5
-3 9 -20 9 -37 1 -18 7 -50 15 -72 18 -50 23 -461 6 -478 -17 -17 -14 -136 4
-154 9 -8 19 -12 23 -9 3 4 7 89 7 189 2 190 23 370 51 437 9 19 20 46 26 60
22 54 43 93 61 113 56 66 73 81 123 113 70 45 144 64 242 64 109 -1 221 -29
260 -67 7 -7 21 -13 30 -13 10 0 28 -7 41 -16 14 -10 33 -14 51 -10 28 5 29 4
18 -19 -9 -19 -6 -29 13 -57 47 -64 103 -176 125 -248 20 -62 44 -240 44 -318
0 -205 -70 -416 -172 -521 -54 -55 -118 -101 -140 -101 -7 0 -26 -7 -43 -16
-16 -8 -48 -18 -72 -21 -24 -3 -43 -10 -43 -14 0 -5 -24 -9 -52 -10 -47 0 -50
-2 -30 -12 18 -8 35 -8 68 1 24 7 64 12 88 12 50 0 148 45 214 98 48 38 122
133 122 156 0 8 4 17 9 20 10 7 35 75 57 155 19 69 29 82 63 75 125 -27 174
-40 221 -62 30 -13 84 -35 120 -49 83 -31 133 -60 245 -141 98 -71 227 -196
292 -282 43 -57 143 -225 143 -240 0 -5 13 -37 29 -72 35 -76 42 -98 81 -256
29 -120 30 -128 30 -367 0 -141 -4 -253 -10 -263 -5 -9 -14 -44 -19 -77 -19
-117 -63 -269 -96 -335 -7 -14 -37 -72 -65 -130 -29 -58 -56 -107 -59 -110 -3
-3 -15 -21 -25 -40 -71 -129 -209 -308 -343 -444 -163 -163 -269 -244 -388
-291 -38 -15 -83 -34 -99 -42 -27 -14 -166 -59 -273 -88 -64 -18 -165 -39
-298 -64 -184 -34 -232 -41 -292 -41 -33 0 -94 -3 -136 -6 l-77 -7 0 -30 c0
-26 3 -29 23 -22 115 35 171 34 209 -2 15 -15 28 -37 28 -49 0 -13 4 -25 9
-28 5 -3 7 -23 4 -45 -5 -33 -2 -39 18 -44 38 -10 218 18 367 58 71 19 116 10
128 -28 4 -11 17 -32 30 -46 13 -14 24 -31 24 -37 0 -6 11 -22 23 -36 19 -21
83 -158 137 -293 35 -87 64 -283 64 -440 1 -119 -6 -170 -40 -328 l-6 -27 406
0 c223 0 406 4 406 8 0 5 21 23 46 41 101 73 164 155 164 213 0 31 20 68 36
68 3 0 26 -9 52 -21 66 -30 145 -92 178 -142 16 -23 32 -43 36 -45 4 -2 15
-30 24 -63 13 -46 21 -59 36 -59 16 0 18 5 12 38 -27 148 -175 301 -316 326
-47 8 -68 29 -68 66 0 30 -32 196 -56 295 -9 33 -20 78 -25 100 -20 83 -93
249 -147 337 -10 14 -32 52 -51 84 -39 68 -165 194 -231 232 -25 14 -47 29
-50 32 -13 16 -70 50 -83 50 -22 0 -25 28 -9 97 11 53 18 64 45 77 46 24 126
76 257 169 44 32 190 172 190 184 1 4 23 33 50 63 28 30 50 58 50 62 0 4 6 13
13 20 40 43 185 280 224 368 14 30 34 79 44 109 10 30 23 59 27 65 32 42 112
382 132 561 25 216 28 273 25 435 -5 278 -29 432 -111 695 -107 344 -278 619
-555 892 -234 231 -468 384 -749 493 -47 18 -98 38 -115 45 -16 7 -64 23 -105
35 -41 12 -85 26 -98 31 -13 5 -34 9 -48 9 -13 0 -32 4 -42 10 -9 5 -46 14
-82 20 -36 6 -89 15 -119 20 -30 5 -82 10 -115 11 -34 1 -74 6 -91 10 -45 11
-418 16 -605 8z m547 -40 c14 -5 55 -9 92 -9 37 0 93 -7 124 -15 32 -8 68 -15
80 -15 29 0 150 -27 257 -57 47 -13 96 -27 110 -30 14 -2 39 -11 57 -19 17 -8
36 -14 43 -14 11 0 25 -6 97 -44 17 -9 36 -16 42 -16 7 0 17 -4 24 -10 7 -5
55 -32 108 -58 53 -27 129 -71 168 -98 40 -27 80 -53 89 -59 47 -28 148 -109
226 -180 89 -81 274 -288 311 -348 6 -9 40 -60 76 -114 37 -54 95 -156 129
-228 34 -71 65 -138 71 -147 5 -10 9 -25 9 -34 0 -9 6 -30 14 -47 12 -30 22
-64 47 -162 6 -22 14 -47 18 -55 5 -9 12 -40 16 -70 3 -30 10 -71 15 -90 42
-175 45 -553 5 -775 -8 -44 -17 -104 -20 -134 -3 -30 -11 -63 -16 -73 -6 -11
-14 -40 -19 -66 -5 -26 -23 -85 -40 -132 -18 -47 -34 -96 -37 -110 -3 -14 -11
-32 -19 -40 -7 -8 -16 -28 -20 -45 -8 -34 -78 -171 -100 -196 -8 -8 -14 -21
-14 -27 0 -6 -16 -28 -35 -48 -19 -19 -35 -40 -35 -45 0 -6 -4 -8 -9 -5 -5 4
-12 0 -14 -6 -3 -7 -6 -2 -6 12 -1 25 22 68 43 82 6 4 9 23 8 43 -3 31 -1 35
20 35 16 0 19 3 10 8 -13 9 -10 24 13 77 8 17 22 58 31 93 10 34 21 62 25 62
3 0 9 18 13 40 3 23 10 49 15 58 13 24 39 135 50 212 5 36 12 76 15 90 3 14 7
102 10 195 2 94 6 177 9 185 12 34 15 130 6 200 -6 41 -11 90 -11 108 -1 18
-5 27 -8 21 -11 -17 -17 1 -19 62 -1 31 -11 90 -22 130 -12 41 -23 91 -26 111
-3 21 -9 35 -14 32 -5 -3 -9 9 -9 26 0 17 -6 33 -14 36 -9 3 -13 15 -10 29 3
15 -2 27 -12 33 -11 6 -15 16 -11 26 4 9 1 19 -6 21 -8 4 -11 22 -9 55 4 45 1
53 -23 72 -21 16 -25 26 -20 46 5 21 3 23 -12 17 -36 -14 -48 -11 -48 15 0 21
4 24 25 22 21 -3 22 -2 11 12 -7 8 -10 19 -7 25 9 13 -17 58 -31 54 -7 -3 -9
-11 -6 -19 8 -21 -20 -17 -39 5 -26 30 -38 57 -38 84 0 14 -7 30 -15 37 -8 7
-15 19 -15 26 0 8 -4 14 -9 14 -5 0 -12 8 -14 18 -3 9 -5 0 -6 -20 -1 -28 -5
-36 -15 -32 -17 7 -29 45 -17 57 11 11 -9 79 -26 90 -15 9 -18 47 -3 47 15 0
12 17 -4 23 -10 4 -13 1 -9 -9 3 -9 -2 -14 -16 -14 -13 0 -19 5 -15 14 3 8 -7
18 -25 26 -30 12 -42 30 -20 30 5 0 7 5 3 12 -6 9 -9 9 -12 0 -2 -7 -10 -12
-18 -12 -9 0 -13 4 -9 9 7 12 -25 30 -42 24 -7 -3 -13 2 -13 10 0 8 -10 22
-22 30 -22 15 -22 16 -3 17 17 0 15 3 -10 20 -16 11 -33 27 -37 37 -6 16 -7
17 -7 1 -1 -10 -7 -15 -15 -12 -7 3 -11 14 -9 28 5 23 -11 34 -60 40 -23 3
-67 50 -67 71 0 8 -7 15 -15 15 -16 0 -86 40 -70 40 6 1 -8 10 -30 21 -22 11
-46 17 -54 14 -7 -3 -22 -3 -32 0 -15 5 -16 11 -9 30 11 29 10 30 -62 45 -32
6 -58 15 -58 20 0 5 -9 12 -21 15 -11 4 -24 18 -30 32 -7 19 -15 24 -36 21
-31 -4 -42 -24 -16 -32 10 -4 26 -18 36 -32 16 -22 17 -29 7 -55 -16 -37 -33
-49 -25 -16 5 18 0 31 -20 51 -14 14 -24 30 -21 35 3 5 -10 21 -29 35 -20 16
-35 36 -35 48 0 21 -5 21 -55 3 -16 -5 -17 -5 -5 4 12 9 10 11 -12 11 -15 0
-33 7 -41 15 -8 8 -18 11 -22 7 -5 -4 -5 1 -2 10 5 15 0 16 -44 11 -33 -4 -49
-2 -49 6 0 6 -9 11 -20 11 -11 0 -20 5 -20 10 0 6 -10 10 -22 10 -13 0 -48 7
-78 15 -30 8 -95 15 -145 16 -65 0 -102 6 -132 19 -24 10 -43 15 -43 10 0 -13
-119 -8 -131 6 -11 13 -87 8 -104 -7 -12 -12 -38 -12 -31 0 8 13 -37 22 -72
15 -17 -4 -32 -1 -36 5 -8 13 -46 15 -46 2 0 -4 -21 -11 -47 -15 -35 -5 -49
-3 -55 8 -4 8 -17 11 -33 8 -40 -7 -40 -22 -1 -22 29 0 36 -4 36 -20 0 -25
-20 -26 -63 -3 -62 32 -332 17 -394 -23 -12 -8 -29 -14 -38 -14 -8 0 -40 -16
-69 -36 -30 -19 -62 -35 -73 -34 -30 4 -43 1 -43 -10 0 -5 7 -10 15 -10 18 0
20 -16 4 -26 -7 -4 -16 1 -21 10 -13 23 -32 20 -69 -11 -18 -16 -41 -27 -51
-25 -10 2 -21 -4 -24 -12 -3 -9 -10 -13 -15 -10 -5 3 -9 -1 -9 -9 0 -8 -9 -22
-21 -33 -17 -16 -22 -16 -29 -4 -13 21 -12 37 3 44 6 3 3 5 -8 3 -11 -1 -20
-9 -20 -17 0 -25 -42 -63 -63 -58 -11 3 -26 2 -33 -3 -11 -7 -9 -9 6 -9 16 0
17 -2 5 -9 -8 -6 -18 -7 -23 -4 -19 12 -63 -20 -82 -60 -16 -34 -26 -43 -50
-45 -16 -1 -39 -7 -50 -12 -11 -4 -33 -11 -48 -15 -15 -3 -25 -9 -22 -14 2 -5
-15 -18 -39 -30 -34 -15 -46 -27 -51 -51 -8 -36 -35 -40 -58 -7 l-16 22 0 -22
c-1 -13 0 -24 2 -26 1 -2 -10 -20 -25 -40 -16 -19 -28 -42 -28 -49 0 -7 -9
-19 -20 -26 -11 -7 -20 -19 -20 -27 0 -8 -7 -15 -15 -15 -8 0 -15 -4 -15 -10
0 -5 -6 -10 -13 -10 -18 0 -57 -34 -57 -49 0 -6 -4 -11 -8 -11 -5 0 -17 -6
-27 -14 -17 -12 -17 -16 -6 -30 18 -21 0 -45 -21 -29 -20 16 -58 -2 -58 -28 0
-11 -11 -30 -24 -40 -23 -18 -41 -69 -25 -69 5 0 9 5 9 12 0 6 9 1 20 -12 20
-23 18 -45 -3 -37 -24 9 -49 -14 -43 -38 5 -18 1 -25 -15 -30 -11 -4 -23 -4
-26 -1 -3 3 -14 -6 -25 -20 -16 -20 -18 -28 -8 -39 9 -11 9 -15 1 -15 -6 0
-11 5 -11 11 0 5 -4 7 -10 4 -5 -3 -10 -17 -10 -31 0 -15 -6 -24 -15 -24 -10
0 -15 -10 -15 -34 0 -18 -6 -39 -14 -45 -14 -11 -16 -94 -3 -108 4 -3 7 -15 7
-26 0 -14 -5 -18 -20 -14 -14 4 -25 -4 -40 -30 -11 -19 -20 -44 -19 -56 0 -12
3 -16 6 -9 4 10 8 10 19 1 37 -31 -1 -53 -42 -24 -22 15 -34 11 -34 -12 0 -7
7 -13 16 -13 13 0 15 -7 10 -32 -14 -67 -12 -192 3 -204 10 -8 11 -13 3 -18
-7 -4 -12 -2 -12 3 0 17 -50 8 -54 -9 -8 -30 -4 -180 5 -186 16 -9 10 -68 -11
-109 -11 -22 -18 -46 -15 -53 3 -8 7 -90 10 -183 3 -93 10 -192 15 -220 6 -29
10 -78 10 -111 0 -34 7 -72 16 -89 9 -18 14 -49 13 -76 -2 -34 1 -47 14 -54 9
-6 17 -18 17 -28 0 -10 7 -35 15 -54 8 -20 15 -51 15 -69 l-1 -33 -14 30 c-8
17 -24 44 -34 60 -11 17 -20 42 -20 56 -1 15 -7 32 -15 38 -7 6 -20 30 -28 54
-8 23 -20 58 -27 77 -75 211 -115 489 -108 740 6 194 21 365 34 400 6 14 14
52 18 84 4 33 10 66 15 75 4 9 15 43 24 76 10 33 22 74 28 90 5 17 12 41 15
55 3 14 9 30 14 36 5 6 20 42 35 80 14 38 29 71 32 74 4 3 25 40 47 83 21 42
43 77 47 77 4 0 8 4 8 9 0 15 64 116 106 168 22 26 53 66 69 87 32 44 153 165
229 230 26 22 58 50 70 60 11 10 57 45 101 77 44 33 85 63 90 67 28 20 124 79
150 92 17 8 37 19 45 26 30 22 262 134 280 134 6 0 32 11 58 24 26 13 74 31
107 40 33 10 87 26 120 36 33 10 76 21 95 24 229 43 310 55 395 61 55 4 132
11 170 15 85 10 349 2 382 -11z m-385 -194 c-3 -18 -11 -25 -28 -25 -36 0 -33
37 4 43 15 2 28 5 28 6 1 0 -1 -10 -4 -24z m78 -15 c0 -5 -4 -10 -10 -10 -5 0
-10 5 -10 10 0 6 5 10 10 10 6 0 10 -4 10 -10z m80 -31 c0 -12 8 -28 18 -35
16 -12 16 -14 -6 -36 -22 -22 -24 -22 -37 -4 -14 18 -52 16 -41 -3 3 -5 -1
-12 -9 -15 -21 -8 -31 20 -15 39 10 12 9 15 -5 15 -9 0 -28 8 -41 19 l-24 19
28 5 c17 4 31 1 38 -9 10 -12 12 -11 17 6 4 15 13 20 41 20 30 0 36 -4 36 -21z
m255 11 c-28 -12 -45 -12 -45 0 0 6 15 10 33 9 27 0 29 -2 12 -9z m-477 -18
c2 -7 -6 -12 -17 -12 -21 0 -27 11 -14 24 9 9 26 2 31 -12z m422 -6 c0 -3 -7
-12 -16 -20 -19 -20 -40 -11 -23 10 10 13 39 20 39 10z m-357 -47 c-7 -7 -20
-8 -30 -5 -17 7 -17 8 1 22 23 17 48 2 29 -17z m27 -45 c0 -9 -5 -14 -12 -12
-18 6 -21 28 -4 28 9 0 16 -7 16 -16z m250 8 c0 -11 -41 -44 -48 -38 -3 3 3
15 13 26 18 20 35 26 35 12z m-100 -46 c0 -28 -28 -43 -37 -19 -4 9 1 21 12
29 25 18 25 18 25 -10z m-90 -23 c0 -26 -15 -31 -24 -7 -9 24 -7 31 9 31 9 0
15 -10 15 -24z m980 -3 c0 -10 8 -23 17 -29 10 -5 15 -12 12 -15 -3 -3 -13 0
-21 7 -20 15 -33 57 -19 57 6 0 11 -9 11 -20z m-1940 -22 c0 -19 -2 -20 -10
-8 -8 12 -10 11 -10 -7 0 -13 -2 -23 -4 -23 -2 0 -11 -3 -20 -6 -13 -5 -14 -2
-5 24 6 17 18 33 27 35 9 3 18 5 20 6 1 0 2 -9 2 -21z m1014 -34 c11 -28 7
-34 -21 -34 -19 0 -24 3 -15 8 7 5 10 16 6 25 -4 11 -1 17 9 17 8 0 18 -7 21
-16z m-1064 -39 c-6 -8 -9 -19 -5 -24 3 -6 1 -19 -4 -28 -8 -15 -11 -15 -12
-3 -1 8 -1 21 0 28 1 6 -3 12 -8 12 -6 0 -8 7 -5 15 4 8 15 15 26 15 17 0 18
-3 8 -15z m2070 -10 c17 -21 5 -31 -15 -12 -8 9 -15 18 -15 21 0 11 18 6 30
-9z m-2240 -15 c-27 -20 -36 -19 -27 5 4 8 17 15 29 15 l23 0 -25 -20z m87
-16 c-8 -48 -13 -51 -36 -23 -26 30 -26 32 2 45 36 18 40 16 34 -22z m2203
-70 c0 -25 9 -31 26 -14 6 6 15 6 24 0 13 -9 12 -13 -6 -28 -12 -9 -26 -26
-32 -37 -11 -20 -11 -20 -12 2 0 12 -6 28 -14 35 -17 18 -29 55 -21 67 10 18
35 0 35 -25z m-2248 -36 c33 -68 39 -93 29 -121 -6 -15 -15 -27 -21 -27 -13 0
-13 6 0 29 7 13 4 30 -10 58 -24 50 -35 93 -23 93 4 0 16 -15 25 -32z m-230
-103 c-3 -17 -10 -25 -20 -23 -22 4 -25 23 -7 42 22 21 34 13 27 -19z m2558
-82 c0 -15 -3 -23 -7 -20 -9 10 -10 56 -1 51 4 -3 8 -17 8 -31z m66 5 c-3 -13
-6 -31 -6 -40 0 -10 -7 -18 -16 -18 -11 0 -14 5 -10 16 3 9 6 27 6 40 0 15 6
24 16 24 12 0 15 -6 10 -22z m-46 -47 c0 -5 -10 -11 -22 -14 -22 -6 -22 -6 -4
8 23 17 26 18 26 6z m-2373 -83 c-3 -7 -5 -2 -5 12 0 14 2 19 5 13 2 -7 2 -19
0 -25z m2353 -28 c4 -64 0 -100 -10 -100 -6 0 -10 34 -10 83 0 52 4 76 9 67 5
-8 10 -31 11 -50z m507 54 c-3 -3 -12 -4 -19 -1 -8 3 -5 6 6 6 11 1 17 -2 13
-5z m-3227 -84 c0 -6 -13 -10 -30 -10 -30 0 -43 24 -17 33 15 5 47 -10 47 -23z
m2805 10 c4 -6 2 -16 -4 -23 -12 -15 2 -42 18 -33 15 10 14 -1 -6 -46 -16 -36
-33 -50 -33 -28 0 6 4 10 9 10 5 0 7 9 4 20 -3 11 -10 20 -15 20 -5 0 -8 8 -6
18 2 11 -3 26 -10 35 -16 19 -8 37 18 37 10 0 22 -5 25 -10z m438 -14 c15 -23
15 -24 -6 -29 -12 -2 -31 -8 -42 -12 -11 -5 -17 -5 -13 0 4 4 3 14 -4 22 -8
11 -7 17 8 28 27 20 39 18 57 -9z m77 4 c0 -5 -4 -10 -10 -10 -5 0 -10 -5 -10
-11 0 -5 6 -7 13 -4 6 4 1 -3 -12 -14 -13 -12 -28 -21 -35 -21 -8 0 -8 2 0 8
6 4 14 19 18 35 6 25 36 39 36 17z m-3547 -20 c-4 -5 -17 -10 -28 -12 -11 -2
-19 -11 -17 -19 3 -12 1 -12 -10 0 -10 11 -10 14 0 18 6 3 12 10 12 17 0 9 9
12 26 8 14 -2 22 -8 17 -12z m81 -12 c-3 -4 -13 -8 -22 -7 -11 0 -12 3 -4 6 6
2 12 12 12 21 0 14 2 15 9 2 6 -8 7 -18 5 -22z m356 7 c11 -13 8 -15 -21 -15
-32 1 -33 1 -15 15 24 18 21 18 36 0z m167 3 c-2 -7 -16 -13 -30 -13 -15 1
-27 -5 -27 -11 0 -17 -40 -28 -52 -16 -8 8 -3 13 15 17 15 4 26 10 25 14 -1
14 3 16 38 19 25 1 34 -2 31 -10z m-315 -18 l22 -20 -23 0 c-28 0 -57 26 -38
33 6 3 13 6 15 6 2 1 12 -8 24 -19z m2828 6 c0 -11 -19 -15 -25 -6 -3 5 1 10
9 10 9 0 16 -2 16 -4z m-2970 -27 c0 -11 -3 -18 -7 -16 -5 2 -17 7 -28 11 -16
6 -17 9 -5 16 24 16 40 11 40 -11z m220 1 c0 -5 -9 -10 -19 -10 -11 0 -23 5
-26 10 -4 6 5 10 19 10 14 0 26 -4 26 -10z m3010 -42 c0 -5 -7 -8 -15 -8 -15
0 -20 21 -8 33 7 7 23 -11 23 -25z m-3150 12 c0 -5 -13 -10 -30 -10 -16 0 -30
5 -30 10 0 6 14 10 30 10 17 0 30 -4 30 -10z m2724 -16 c14 -5 14 -7 0 -21
-17 -17 -42 -3 -30 16 8 13 9 13 30 5z m693 0 c-3 -3 -12 -4 -19 -1 -8 3 -5 6
6 6 11 1 17 -2 13 -5z m-3827 -14 c0 -5 -4 -10 -10 -10 -5 0 -10 5 -10 10 0 6
5 10 10 10 6 0 10 -4 10 -10z m492 -2 c-17 -8 -26 -8 -34 0 -9 9 -4 12 23 11
32 0 33 -1 11 -11z m55 6 c-3 -3 -12 -4 -19 -1 -8 3 -5 6 6 6 11 1 17 -2 13
-5z m2820 0 c-3 -3 -12 -4 -19 -1 -8 3 -5 6 6 6 11 1 17 -2 13 -5z m483 -34
c0 -5 -4 -10 -10 -10 -5 0 -10 5 -10 10 0 6 5 10 10 10 6 0 10 -4 10 -10z
m-3463 -16 c-3 -3 -12 -4 -19 -1 -8 3 -5 6 6 6 11 1 17 -2 13 -5z m-325 -24
c16 -14 19 -23 11 -31 -8 -8 -15 -4 -27 12 -28 41 -19 52 16 19z m3788 -19 c0
-19 -27 -12 -33 8 -3 11 -3 22 0 25 7 7 33 -20 33 -33z m-3520 9 c0 -10 -33
-30 -49 -30 -6 0 -8 6 -5 14 3 9 -2 16 -13 18 -10 3 1 5 25 6 23 0 42 -3 42
-8z m3220 6 c0 -3 -4 -8 -10 -11 -5 -3 -10 -1 -10 4 0 6 5 11 10 11 6 0 10 -2
10 -4z m-3370 -40 c0 -8 5 -16 12 -18 6 -2 9 -10 6 -18 -3 -10 -10 -7 -26 10
-20 22 -21 40 -1 40 5 0 9 -6 9 -14z m3625 -37 c8 -35 -3 -54 -12 -21 -3 12
-9 22 -14 22 -5 0 -9 7 -9 15 0 28 28 15 35 -16z m-3681 12 c3 -4 3 -11 0 -14
-8 -8 -34 3 -34 14 0 11 27 12 34 0z m3590 1 c6 -10 -63 -36 -72 -27 -9 9 27
35 49 35 10 0 20 -4 23 -8z m261 -12 c-3 -5 -16 -10 -28 -9 -20 1 -20 2 3 9
14 4 26 8 28 9 2 1 0 -3 -3 -9z m-3987 -12 c-3 -7 -11 -13 -18 -13 -7 0 -15 6
-17 13 -3 7 4 12 17 12 13 0 20 -5 18 -12z m3642 -14 c0 -2 -9 -4 -21 -4 -11
0 -18 4 -14 10 5 8 35 3 35 -6z m-3510 -45 c0 -5 -6 -9 -14 -9 -8 0 -14 9 -13
19 1 15 4 17 14 9 7 -6 13 -14 13 -19z m3645 -9 c3 -6 -3 -10 -14 -10 -12 0
-24 0 -28 0 -9 0 -12 20 -6 33 5 8 39 -8 48 -23z m85 11 c13 -26 13 -52 -1
-28 -5 9 -17 17 -24 17 -8 0 -15 7 -15 15 0 22 27 19 40 -4z m-3772 -41 c-15
-24 -19 -21 -11 8 3 12 9 19 14 16 5 -3 3 -14 -3 -24z m3836 15 c-4 -8 -10
-12 -15 -9 -14 8 -10 24 6 24 9 0 12 -6 9 -15z m-96 -13 c2 -7 -6 -12 -17 -12
-21 0 -27 11 -14 24 9 9 26 2 31 -12z m-3978 -32 c0 -5 -4 -10 -10 -10 -5 0
-10 5 -10 10 0 6 5 10 10 10 6 0 10 -4 10 -10z m3930 0 c0 -13 -11 -13 -30 0
-12 8 -11 10 8 10 12 0 22 -4 22 -10z m252 -9 c7 22 38 1 38 -26 0 -22 -2 -24
-19 -14 -20 13 -51 6 -51 -11 0 -7 8 -9 20 -5 16 5 20 2 20 -14 0 -16 6 -21
24 -21 29 0 40 -14 32 -37 -6 -14 -8 -14 -21 3 -15 19 -15 19 -30 0 -15 -20
-15 -20 -30 0 -14 18 -35 77 -35 100 0 19 23 34 36 23 8 -7 13 -6 16 2z
m-4172 -15 c0 -2 -7 -9 -15 -16 -12 -10 -15 -10 -15 4 0 9 7 16 15 16 8 0 15
-2 15 -4z m30 -25 c0 -5 -7 -11 -15 -15 -9 -3 -15 0 -15 9 0 8 7 15 15 15 8 0
15 -4 15 -9z m90 1 c0 -14 -11 -21 -26 -15 -21 8 -17 23 6 23 11 0 20 -4 20
-8z m-122 -45 c2 -10 -3 -17 -12 -17 -18 0 -29 16 -21 31 9 14 29 6 33 -14z
m60 1 c-5 -32 -28 -35 -28 -4 0 17 5 26 16 26 10 0 14 -7 12 -22z m4062 -76
c0 -10 -9 -6 -25 12 -14 15 -25 31 -25 36 0 6 11 0 25 -12 14 -12 25 -28 25
-36z m-4100 -50 c0 -15 -2 -15 -10 -2 -13 20 -13 33 0 25 6 -3 10 -14 10 -23z
m4140 18 c0 -5 -4 -10 -10 -10 -5 0 -10 5 -10 10 0 6 5 10 10 10 6 0 10 -4 10
-10z m57 -82 c-3 -8 -6 -5 -6 6 -1 11 2 17 5 13 3 -3 4 -12 1 -19z m-4297 -8
c0 -21 -24 -28 -35 -10 -8 14 3 30 21 30 8 0 14 -9 14 -20z m4405 0 c3 -5 1
-10 -4 -10 -6 0 -11 5 -11 10 0 6 2 10 4 10 3 0 8 -4 11 -10z m-4394 -67 c-8
-15 -9 -12 -7 12 5 39 7 44 13 23 2 -10 0 -25 -6 -35z m4439 23 c5 -13 14 -26
21 -28 8 -3 10 -11 5 -23 -6 -18 -9 -17 -31 10 -25 31 -33 65 -15 65 6 0 15
-11 20 -24z m-50 -65 c44 -43 50 -65 21 -80 -16 -9 -20 -6 -25 24 -4 19 -11
35 -15 35 -5 0 -11 8 -15 18 -3 9 -9 23 -12 30 -10 22 6 13 46 -27z m-4442
-69 c2 -13 -3 -25 -12 -28 -10 -4 -16 -18 -16 -35 0 -16 -4 -29 -9 -29 -14 0
-20 25 -10 41 5 8 9 29 9 47 0 26 4 33 18 30 9 -2 18 -13 20 -26z m4517 -51
c-10 -16 -25 -3 -25 22 0 20 1 20 16 5 9 -9 13 -21 9 -27z m23 -104 c-1 -12 2
-29 7 -37 5 -8 -1 -6 -14 5 -13 11 -26 19 -30 19 -8 -3 -2 18 11 33 14 18 30
5 26 -20z m12 -101 c0 -7 7 -19 15 -26 8 -7 15 -23 15 -36 0 -13 5 -24 10 -24
6 0 10 -32 10 -75 0 -49 -4 -75 -11 -75 -8 0 -10 22 -7 73 3 39 3 66 1 59 -7
-19 -28 14 -38 56 -3 17 -11 32 -15 32 -5 0 -7 7 -4 15 8 19 24 20 24 1z
m-4551 -1221 c1 -17 -1 -17 -9 -5 -5 8 -9 26 -9 40 0 23 1 23 9 5 5 -11 9 -29
9 -40z m121 -215 c0 -5 -2 -10 -4 -10 -3 0 -8 5 -11 10 -3 6 -1 10 4 10 6 0
11 -4 11 -10z m4206 -90 c0 -11 -6 -20 -13 -20 -7 0 -13 -7 -13 -15 0 -8 -4
-15 -10 -15 -13 0 -13 6 1 33 9 17 23 32 34 37 1 0 1 -9 1 -20z m-152 -205
c-6 -16 -24 -21 -24 -7 0 11 11 22 21 22 5 0 6 -7 3 -15z m-3542 -567 c-7 -7
-12 -8 -12 -2 0 6 3 14 7 17 3 4 9 5 12 2 2 -3 -1 -11 -7 -17z m3108 -64 c0
-2 -7 -4 -15 -4 -8 0 -15 4 -15 10 0 5 7 7 15 4 8 -4 15 -8 15 -10z m50 -24
c0 -5 -7 -10 -15 -10 -8 0 -15 5 -15 10 0 6 7 10 15 10 8 0 15 -4 15 -10z
m-3175 -20 c3 -5 -1 -10 -10 -10 -9 0 -13 5 -10 10 3 6 8 10 10 10 2 0 7 -4
10 -10z m3073 -25 c-3 -3 -9 2 -12 12 -6 14 -5 15 5 6 7 -7 10 -15 7 -18z
m-3238 8 c0 -5 -5 -15 -10 -23 -8 -12 -10 -11 -10 8 0 12 5 22 10 22 6 0 10
-3 10 -7z m3204 -18 c-21 -16 -54 -20 -54 -6 0 5 12 12 28 14 15 2 31 5 36 6
6 0 1 -6 -10 -14z m209 -35 c-19 -22 -29 -19 -20 5 4 8 13 15 22 15 13 0 12
-3 -2 -20z m-303 6 c0 -2 -7 -9 -15 -16 -12 -10 -15 -10 -15 4 0 9 7 16 15 16
8 0 15 -2 15 -4z m-3000 -21 c0 -8 -4 -15 -10 -15 -5 0 -10 7 -10 15 0 8 5 15
10 15 6 0 10 -7 10 -15z m-150 -5 c0 -5 -7 -10 -16 -10 -8 0 -12 5 -9 10 3 6
10 10 16 10 5 0 9 -4 9 -10z m3245 -20 c3 -5 1 -10 -4 -10 -6 0 -11 5 -11 10
0 6 2 10 4 10 3 0 8 -4 11 -10z m-45 -10 c0 -5 -5 -10 -11 -10 -5 0 -7 5 -4
10 3 6 8 10 11 10 2 0 4 -4 4 -10z m-3090 -26 c0 -9 -5 -14 -12 -12 -18 6 -21
28 -4 28 9 0 16 -7 16 -16z m3060 2 c0 -8 10 -17 23 -19 20 -4 20 -4 -3 -6
-15 0 -31 4 -38 11 -9 9 -12 9 -12 0 0 -7 -10 -12 -22 -12 -20 0 -21 1 -3 20
21 23 55 27 55 6z m390 -7 c0 -11 -4 -17 -10 -14 -5 3 -10 13 -10 21 0 8 5 14
10 14 6 0 10 -9 10 -21z m-110 7 c0 -3 -4 -8 -10 -11 -5 -3 -10 -1 -10 4 0 6
5 11 10 11 6 0 10 -2 10 -4z m74 -37 c-3 -5 -10 -7 -15 -3 -5 3 -7 10 -3 15 3
5 10 7 15 3 5 -3 7 -10 3 -15z m-2819 -59 c3 -5 1 -10 -4 -10 -6 0 -11 5 -11
10 0 6 2 10 4 10 3 0 8 -4 11 -10z m2208 4 c7 -7 -14 -44 -25 -44 -5 0 -8 11
-8 25 0 23 18 34 33 19z"/>
<path d="M711 4034 c0 -11 3 -14 6 -6 3 7 2 16 -1 19 -3 4 -6 -2 -5 -13z"/>
<path d="M2755 5245 c-17 -9 -43 -37 -59 -63 -25 -40 -30 -60 -34 -140 -4 -76
-1 -100 14 -135 23 -51 48 -74 91 -83 56 -11 86 3 123 58 35 50 35 51 35 162
0 98 -3 115 -23 147 -21 35 -73 69 -104 69 -7 0 -27 -7 -43 -15z m73 -157 c15
-15 16 -102 2 -129 -6 -10 -19 -19 -30 -19 -24 0 -40 29 -40 74 0 71 34 108
68 74z"/>
<path d="M3231 5193 c-94 -114 -72 -338 36 -374 140 -46 227 162 142 337 -24
50 -61 74 -113 74 -28 0 -41 -7 -65 -37z m112 -157 c3 -19 1 -51 -4 -71 -9
-31 -14 -36 -36 -33 -31 4 -46 44 -37 96 13 71 66 76 77 8z"/>
<path d="M2990 4705 c0 -51 -31 -78 -115 -99 -73 -18 -124 -51 -180 -115 -16
-19 -45 -52 -63 -72 -22 -25 -31 -43 -26 -51 5 -7 9 -47 9 -88 2 -102 32 -181
94 -238 50 -47 128 -92 161 -92 30 0 60 -35 61 -72 l1 -33 8 35 c10 41 29 56
83 65 57 10 109 38 152 82 62 63 91 138 101 260 5 51 11 74 22 78 13 5 12 9
-6 25 -11 11 -33 36 -49 57 -15 21 -49 63 -75 92 -27 30 -48 61 -48 68 0 16
-24 17 -48 2 -15 -9 -25 -8 -46 7 -27 17 -28 21 -23 71 3 30 2 53 -4 53 -5 0
-9 -16 -9 -35z m89 -250 c44 -22 73 -124 46 -163 -35 -49 -120 -52 -169 -7
-20 19 -26 33 -26 67 1 56 20 89 61 104 45 17 55 16 88 -1z"/>
<path d="M3082 4670 c0 -14 2 -19 5 -12 2 6 2 18 0 25 -3 6 -5 1 -5 -13z"/>
<path d="M2080 4550 c0 -5 5 -10 11 -10 5 0 7 5 4 10 -3 6 -8 10 -11 10 -2 0
-4 -4 -4 -10z"/>
<path d="M2110 4522 c0 -25 156 -132 192 -132 10 0 18 -4 18 -10 0 -6 47 -9
123 -9 l122 2 -103 7 c-57 4 -109 13 -115 19 -6 6 -19 11 -28 11 -10 0 -58 27
-107 60 -92 61 -102 66 -102 52z"/>
<path d="M3368 4343 c7 -3 16 -2 19 1 4 3 -2 6 -13 5 -11 0 -14 -3 -6 -6z"/>
<path d="M3438 4313 c12 -2 30 -2 40 0 9 3 -1 5 -23 4 -22 0 -30 -2 -17 -4z"/>
<path d="M4635 4180 c-27 -10 -59 -19 -70 -19 -11 -1 -33 -8 -50 -17 -16 -8
-48 -18 -72 -21 -24 -3 -48 -12 -54 -19 -6 -8 -26 -14 -45 -14 -18 0 -36 -5
-40 -12 -5 -8 6 -9 42 -4 27 3 51 11 52 16 2 6 20 10 40 10 21 1 48 7 62 15
14 8 40 14 58 15 19 0 35 6 38 15 4 11 21 15 58 15 35 0 59 6 76 20 l25 20
-35 -1 c-19 0 -57 -9 -85 -19z"/>
<path d="M1340 4109 c14 -6 39 -17 55 -24 33 -15 152 -45 177 -45 9 0 29 -7
44 -15 16 -8 40 -15 54 -15 15 0 31 -5 36 -10 6 -6 33 -15 60 -20 27 -5 77
-15 112 -22 34 -6 62 -15 62 -20 0 -4 21 -8 48 -7 l47 1 -35 10 c-19 6 -44 14
-55 18 -58 23 -120 42 -215 66 -58 14 -119 29 -135 33 -17 4 -40 13 -51 19
-24 13 -115 31 -184 38 -39 3 -42 3 -20 -7z"/>
<path d="M4243 4053 c9 -2 23 -2 30 0 6 3 -1 5 -18 5 -16 0 -22 -2 -12 -5z"/>
<path d="M4116 4023 c-4 -5 -22 -13 -39 -20 l-32 -11 31 -1 c17 -1 34 2 38 7
4 4 24 12 44 18 l37 12 -36 1 c-20 1 -39 -2 -43 -6z"/>
<path d="M3988 3963 c7 -3 16 -2 19 1 4 3 -2 6 -13 5 -11 0 -14 -3 -6 -6z"/>
<path d="M2907 3730 c-10 -75 -15 -280 -6 -280 9 0 22 228 17 290 l-3 45 -8
-55z"/>
<path d="M4640 3550 c0 -7 24 -8 68 -4 90 9 91 14 4 14 -43 0 -72 -4 -72 -10z"/>
<path d="M4453 3523 c9 -2 25 -2 35 0 9 3 1 5 -18 5 -19 0 -27 -2 -17 -5z"/>
<path d="M4248 3493 c6 -2 18 -2 25 0 6 3 1 5 -13 5 -14 0 -19 -2 -12 -5z"/>
<path d="M1320 3471 l-65 -8 75 -2 c41 -2 136 -6 210 -10 129 -7 186 -2 163
12 -17 10 -309 16 -383 8z"/>
<path d="M1755 3439 c22 -4 78 -7 125 -7 l85 1 -60 7 c-33 4 -89 8 -125 8 -60
0 -62 -1 -25 -9z"/>
<path d="M2877 3373 c-9 -95 -7 -554 1 -633 5 -43 10 57 14 295 4 198 10 370
13 383 5 16 3 22 -8 22 -11 0 -16 -17 -20 -67z"/>
<path d="M4264 2919 c-2 -4 8 -10 23 -12 16 -3 69 -13 118 -22 50 -9 104 -20
120 -26 50 -16 155 -24 155 -10 0 6 -11 11 -24 11 -13 0 -42 6 -64 14 -22 8
-62 17 -89 21 -26 4 -59 10 -73 15 -33 11 -160 18 -166 9z"/>
<path d="M1945 2910 c-7 -12 32 -12 60 0 16 7 13 9 -17 9 -20 1 -40 -3 -43 -9z"/>
<path d="M1840 2882 c0 -5 14 -7 30 -4 17 2 30 6 30 8 0 2 -13 4 -30 4 -16 0
-30 -4 -30 -8z"/>
<path d="M1773 2853 c9 -2 23 -2 30 0 6 3 -1 5 -18 5 -16 0 -22 -2 -12 -5z"/>
<path d="M4690 2830 c0 -6 21 -10 47 -10 56 0 54 6 -4 14 -25 3 -43 1 -43 -4z"/>
<path d="M4868 2793 c6 -2 18 -2 25 0 6 3 1 5 -13 5 -14 0 -19 -2 -12 -5z"/>
<path d="M1508 2763 c7 -3 16 -2 19 1 4 3 -2 6 -13 5 -11 0 -14 -3 -6 -6z"/>
<path d="M2863 2479 c-7 -7 -34 -19 -62 -29 -138 -46 -244 -226 -245 -415 -1
-80 3 -97 29 -151 29 -60 95 -123 150 -144 51 -19 158 -40 208 -40 54 0 174
36 161 49 -3 3 -80 7 -170 8 -134 1 -167 4 -180 17 -8 9 -23 16 -32 17 -26 1
-82 73 -89 113 -7 46 2 78 31 113 14 16 28 41 31 56 5 17 14 27 25 27 9 0 28
8 41 18 107 77 192 104 322 100 81 -2 100 -5 108 -20 5 -9 17 -19 27 -22 35
-11 52 -65 55 -171 2 -83 -1 -106 -16 -129 -10 -15 -16 -35 -12 -44 5 -13 10
-11 30 13 23 28 24 38 24 155 0 94 -3 130 -14 144 -8 11 -15 29 -15 41 0 38
-59 142 -106 185 -52 48 -130 87 -192 96 -23 3 -45 10 -48 15 -7 13 -48 11
-61 -2z"/>
<path d="M2278 333 c12 -2 32 -2 45 0 12 2 2 4 -23 4 -25 0 -35 -2 -22 -4z"/>
<path d="M3806 310 c7 -7 19 -7 35 -1 23 9 22 10 -10 10 -24 1 -32 -2 -25 -9z"/>
<path d="M2473 303 c15 -2 37 -2 50 0 12 2 0 4 -28 4 -27 0 -38 -2 -22 -4z"/>
<path d="M2550 288 c0 -4 15 -9 33 -12 249 -39 431 -56 616 -56 113 0 234 17
225 31 -3 5 -92 9 -197 9 -106 1 -250 6 -322 11 -233 18 -355 24 -355 17z"/>
<path d="M2111 178 c-1 -16 4 -28 9 -28 12 0 12 8 0 35 -8 18 -9 17 -9 -7z"/>
<path d="M2120 93 c0 -18 5 -33 10 -33 6 0 10 -13 10 -30 0 -17 5 -30 10 -30
13 0 3 65 -16 100 l-13 25 -1 -32z"/>
<path d="M3913 33 c-16 -6 -17 -33 -3 -33 11 0 26 28 19 34 -2 2 -10 1 -16 -1z"/>
</g>
</svg>
